<?xml version="1.0" standalone="no"?>
<!DOCTYPE svg PUBLIC "-//W3C//DTD SVG 20010904//EN"
 "http://www.w3.org/TR/2001/REC-SVG-20010904/DTD/svg10.dtd">
<svg version="1.0" xmlns="http://www.w3.org/2000/svg"
 width="700.000000pt" height="700.000000pt" viewBox="0 0 700.000000 700.000000"
 preserveAspectRatio="xMidYMid meet">
<metadata>
Created by potrace 1.11, written by Peter Selinger 2001-2013
</metadata>
<g transform="translate(0.000000,700.000000) scale(0.100000,-0.100000)"
fill="#000000" stroke="none">
<path d="M1745 6840 c-274 -25 -498 -184 -620 -441 -64 -134 -67 -165 -72
-655 -5 -469 2 -625 35 -731 l20 -62 -342 -3 -343 -3 -49 -30 c-66 -41 -106
-108 -112 -185 -5 -73 11 -122 56 -172 48 -53 100 -78 177 -85 l65 -6 0 -702
0 -703 -63 -4 c-71 -5 -120 -25 -167 -71 -93 -91 -93 -242 0 -335 67 -68 60
-67 436 -70 l342 -3 -20 -62 c-33 -106 -40 -262 -35 -731 5 -493 8 -516 75
-658 100 -213 280 -361 506 -418 78 -20 114 -20 1840 -20 l1761 0 -190 190
c-145 146 -195 190 -210 187 -11 -3 -63 -16 -115 -31 -372 -102 -811 -68
-1147 89 l-96 45 -857 0 c-942 0 -906 -2 -983 61 -20 17 -49 52 -65 77 l-27
47 -3 503 -3 504 24 51 c29 63 77 112 137 141 43 20 61 21 458 24 l412 3 0
127 c0 70 7 172 15 226 8 55 15 105 15 113 0 11 -136 13 -780 13 l-780 0 2
233 3 232 810 5 c878 5 826 2 891 57 126 108 98 316 -53 390 l-58 28 -797 3
-798 3 0 229 0 230 1833 -2 1832 -3 46 -27 c53 -31 103 -85 122 -131 11 -25
26 -37 73 -56 113 -45 270 -137 369 -216 73 -58 68 -66 62 121 -5 153 -11 197
-41 292 l-7 22 314 0 c358 0 392 5 455 68 52 52 74 103 74 171 1 138 -103 241
-244 241 l-58 0 0 704 0 703 63 7 c112 13 181 59 220 146 53 118 -2 257 -123
314 l-45 21 -2080 1 c-1144 1 -2116 -2 -2160 -6z m3645 -710 l0 -230 -802 -2
c-765 -3 -805 -4 -841 -22 -190 -94 -181 -359 16 -441 32 -13 140 -15 832 -15
l795 0 0 -235 0 -235 -1822 2 c-1671 3 -1826 4 -1859 20 -56 25 -120 88 -145
143 l-24 50 0 495 c0 460 2 498 19 536 27 60 80 114 136 140 l50 24 1823 0
1822 0 0 -230z"/>
<path d="M4055 4179 c-132 -23 -218 -44 -300 -74 -524 -189 -891 -639 -975
-1195 -6 -41 -11 -136 -11 -210 0 -409 158 -781 453 -1066 218 -212 478 -344
779 -395 106 -18 150 -20 299 -16 106 3 204 12 250 22 112 24 268 79 357 124
l78 39 620 -618 c583 -582 624 -621 690 -652 65 -31 77 -33 175 -33 93 0 112
3 162 27 77 36 152 112 191 196 29 61 32 76 32 162 0 84 -4 103 -29 160 -27
60 -73 108 -654 691 l-624 626 31 61 c176 349 209 758 89 1131 -174 543 -630
929 -1203 1017 -99 15 -331 17 -410 3z m381 -424 c382 -67 698 -334 824 -698
93 -270 76 -567 -49 -822 -135 -275 -368 -468 -676 -562 -84 -25 -103 -27
-275 -27 -161 -1 -196 2 -267 22 -480 131 -803 542 -804 1022 -1 124 5 174 32
282 100 401 446 717 864 787 83 14 257 12 351 -4z"/>
</g>
</svg>
