<?xml version="1.0" standalone="no"?>
<!DOCTYPE svg PUBLIC "-//W3C//DTD SVG 20010904//EN"
 "http://www.w3.org/TR/2001/REC-SVG-20010904/DTD/svg10.dtd">
<svg version="1.0" xmlns="http://www.w3.org/2000/svg"
 width="700.000000pt" height="700.000000pt" viewBox="0 0 700.000000 700.000000"
 preserveAspectRatio="xMidYMid meet">
<metadata>
Created by potrace 1.11, written by Peter Selinger 2001-2013
</metadata>
<g transform="translate(0.000000,700.000000) scale(0.100000,-0.100000)"
fill="#000000" stroke="none">
<path d="M381 6990 c-127 -19 -266 -122 -327 -243 -57 -111 -54 75 -54 -3247
0 -3333 -3 -3136 55 -3251 35 -68 126 -159 194 -194 115 -58 -82 -55 3251 -55
3333 0 3136 -3 3251 55 68 35 159 126 194 194 58 115 55 -82 55 3251 0 3322 3
3136 -54 3247 -63 125 -196 221 -336 243 -78 12 -6145 12 -6229 0z m5664 -171
c98 -50 149 -159 126 -266 -25 -110 -112 -181 -236 -190 l-65 -6 0 -703 0
-704 63 0 c80 -1 131 -24 184 -84 104 -118 70 -293 -72 -369 -38 -21 -54 -22
-377 -25 -186 -2 -338 -4 -338 -5 0 -1 10 -31 22 -67 17 -53 22 -97 26 -237 2
-95 2 -173 -1 -173 -3 0 -46 30 -95 68 -96 71 -213 138 -326 187 -60 26 -71
36 -92 76 -13 26 -42 63 -66 83 -82 71 53 66 -1945 66 l-1803 0 0 -230 0 -230
778 0 c856 0 840 1 915 -61 58 -48 81 -101 82 -184 0 -59 -4 -77 -28 -118 -35
-60 -93 -102 -158 -116 -33 -7 -310 -11 -819 -11 l-770 0 0 -230 0 -230 780 0
780 0 -5 -22 c-20 -84 -26 -142 -32 -290 l-6 -167 -411 -3 c-458 -3 -446 -2
-526 -75 -24 -21 -54 -60 -66 -88 l-24 -50 1 -490 c0 -349 4 -499 12 -522 25
-66 73 -119 137 -152 l63 -31 862 0 862 0 76 -35 c215 -99 410 -144 662 -152
208 -6 339 8 523 59 l114 31 189 -189 c104 -104 189 -192 189 -197 0 -4 -793
-6 -1762 -4 -1624 2 -1768 4 -1826 20 -322 88 -540 331 -582 651 -8 54 -10
253 -8 572 4 466 5 493 26 568 12 44 22 81 22 83 0 1 -147 3 -327 3 -323 0
-329 1 -378 24 -89 41 -135 114 -135 216 0 138 104 240 245 240 l55 0 0 704 0
703 -70 5 c-90 7 -151 42 -195 112 -27 45 -30 58 -30 132 0 75 3 86 30 125 17
24 50 57 74 74 l43 30 345 3 345 3 -6 22 c-42 147 -41 130 -41 687 0 475 2
543 17 602 81 313 343 545 658 581 19 2 987 3 2150 3 l2116 -1 49 -26z m-1490
-2659 c451 -96 827 -387 1029 -795 110 -223 150 -399 150 -660 0 -252 -37
-423 -140 -644 l-44 -95 623 -625 c582 -585 625 -630 652 -691 26 -57 29 -77
30 -160 0 -91 -2 -100 -38 -172 -43 -87 -98 -142 -186 -185 -50 -25 -67 -28
-161 -28 -178 0 -122 -45 -846 677 l-631 630 -79 -40 c-105 -52 -206 -88 -334
-119 -130 -30 -377 -42 -515 -24 -314 42 -600 177 -827 390 -254 239 -412 545
-458 888 -16 117 -8 390 15 493 64 294 201 546 410 755 239 240 538 385 885
429 90 11 367 -3 465 -24z"/>
<path d="M1711 6343 c-62 -22 -134 -96 -155 -160 -15 -45 -16 -103 -14 -544 3
-485 3 -495 25 -534 29 -54 78 -99 138 -127 l50 -23 1818 -3 1817 -2 0 235 0
235 -800 0 c-876 0 -832 -3 -904 60 -127 112 -101 312 53 392 l53 28 799 0
799 0 0 230 0 230 -1817 -1 c-1625 0 -1823 -2 -1862 -16z"/>
<path d="M4100 3763 c-277 -43 -511 -178 -685 -396 -219 -273 -287 -651 -179
-991 128 -403 492 -695 914 -735 557 -52 1059 329 1155 878 101 577 -279 1126
-858 1236 -72 14 -281 19 -347 8z"/>
</g>
</svg>
