<?xml version="1.0"?>
<svg width="455" height="455" xmlns="http://www.w3.org/2000/svg" xmlns:svg="http://www.w3.org/2000/svg">
 <g class="layer">
  <title>Background</title>
  <rect fill="#4d5a9e" height="455" id="svg_21" rx="30" ry="30" stroke-dasharray="null" stroke-linecap="null" stroke-linejoin="null" stroke-width="null" width="455" x="0" y="0"/>
 </g>
 <g class="layer" display="inline">
  <title>Layer 1</title>
  <g id="svg_1">
   <g id="svg_2">
    <g id="svg_3">
     <path id="svg_4" fill="#f0f0f0" d="m277.735223,391.735573c-18.190713,0 -35.70291,-4.336382 -51.362012,-12.507163l-108.565368,0c-9.959773,0 -18.062505,-8.105691 -18.062505,-18.062505l0,-55.796029c0,-9.959773 8.103718,-18.061519 18.062505,-18.061519l49.062161,0c-0.128208,-2.200243 -0.201188,-4.417251 -0.201188,-6.638205c0,-8.336465 0.909289,-16.531901 2.681515,-24.470922l-101.547471,0l0,-30.406942l100.398532,0c8.589922,0 15.554563,-6.963655 15.554563,-15.553577s-6.965628,-15.553577 -15.554563,-15.553577l-100.398532,0l0,-30.406942l50.004982,0l182.581695,0c8.071173,0 14.9224,5.323582 17.23014,12.641288c11.561384,4.429086 22.339714,10.810875 31.942477,18.965877l0,-13.545646c0,-6.375872 -1.232767,-12.466728 -3.451748,-18.061519l39.747373,0c8.588935,0 15.553577,-6.965628 15.553577,-15.555549s-6.964641,-15.553577 -15.553577,-15.553577l-4.350189,0l0,-91.924983l4.350189,0c8.588935,0 15.553577,-6.965628 15.553577,-15.555549s-6.964641,-15.556536 -15.553577,-15.556536l-268.049937,0c-27.112988,0 -49.170645,22.058643 -49.170645,49.171631l0,55.796029c0,6.377844 1.232767,12.4687 3.451748,18.063491l-39.746386,0c-8.589922,0 -15.554563,6.963655 -15.554563,15.553577s6.965628,15.555549 15.554563,15.555549l4.351175,0l0,91.922024l-4.351175,0c-8.589922,0 -15.554563,6.964641 -15.554563,15.553577c0,8.588935 6.965628,15.553577 15.554563,15.553577l39.746386,0c-2.218981,5.596763 -3.451748,11.688605 -3.451748,18.060532l0,55.795043c0,27.114961 22.057657,49.173603 49.170645,49.173603l222.371475,0l-25.047857,-25.049829c-11.998276,4.287071 -24.547846,6.454769 -37.396239,6.454769zm-177.989884,-332.431943c0,-9.958786 8.103718,-18.061519 18.062505,-18.061519l232.588649,0l0,30.40497l-100.400504,0c-8.588935,0 -15.553577,6.965628 -15.553577,15.555549s6.964641,15.553577 15.553577,15.553577l100.400504,0l0,30.406942l-232.588649,0c-9.959773,0 -18.062505,-8.103718 -18.062505,-18.063491l0,-55.796029z" />
     <path id="svg_5" fill="#f0860f" stroke="#3f7f00" stroke-width="0" d="m438.511732,405.072142l-77.945403,-77.944417c21.009311,-36.931732 15.789282,-84.845941 -15.676854,-116.31109c-37.735496,-37.73451 -99.131247,-37.73451 -136.861812,0c-37.733524,37.732538 -37.73451,99.132233 0,136.861812c31.464163,31.466136 79.378372,36.686165 116.312077,15.676854l77.945403,77.943431c9.989359,9.989359 26.240189,9.989359 36.227576,0c9.988373,-9.984428 9.988373,-26.235258 -0.000986,-36.226589zm-112.897805,-76.668256c-27.10214,27.104112 -71.206605,27.104112 -98.313676,0c-27.10214,-27.10214 -27.10214,-71.205619 0,-98.311703c27.105099,-27.103126 71.207591,-27.103126 98.313676,0c27.103126,27.106085 27.103126,71.207591 0,98.311703z"/>
    </g>
   </g>
  </g>
 </g>
</svg>